<?xml version="1.0" standalone="no"?><!DOCTYPE svg PUBLIC "-//W3C//DTD SVG 1.1//EN" "http://www.w3.org/Graphics/SVG/1.1/DTD/svg11.dtd"><svg t="1507037365669" class="icon" style="" viewBox="0 0 1024 1024" version="1.1" xmlns="http://www.w3.org/2000/svg" p-id="5842" xmlns:xlink="http://www.w3.org/1999/xlink" width="32" height="32"><defs><style type="text/css"></style></defs><path d="M525.298701 126.337662C293.901299 126.337662 106.38961 313.849351 106.38961 545.246753S293.901299 964.155844 525.298701 964.155844 944.207792 776.644156 944.207792 545.246753 756.696104 126.337662 525.298701 126.337662zM512 664.935065c-81.122078 0-146.285714-65.163636-146.285714-146.285714s65.163636-146.285714 146.285714-146.285715 146.285714 65.163636 146.285714 146.285715-65.163636 146.285714-146.285714 146.285714z" fill="#FFCCA7" p-id="5843"></path><path d="M857.766234 731.428571l13.298701-53.194805v-39.896104l-13.298701-39.896104-39.896104 13.298702h-39.896104l-39.896104-13.298702v-39.896103l-39.896104-39.896104-26.597402-3.989611v3.989611c0 78.462338-67.823377 146.285714-146.285715 146.285714-91.761039 0-159.584416-67.823377-159.584415-146.285714 0-17.288312 2.65974-34.576623 7.97922-50.535065L352.415584 465.454545v-39.896103h-53.194805l-53.194805 13.298701-39.896104-13.298701-26.597402-26.597403-35.906494-142.296104C90.431169 329.807792 59.844156 420.238961 59.844156 518.649351c0 250.015584 202.14026 452.155844 452.155844 452.155844 162.244156 0 304.54026-85.111688 384.332468-214.109091L857.766234 731.428571z" fill="#FFEADA" p-id="5844"></path><path d="M817.87013 372.363636c-9.309091 0-13.298701-1.32987-13.298701 0l-79.792208-53.194805c-13.298701-10.638961-15.958442-22.607792-13.298702-26.597402 9.309091-13.298701 21.277922-15.958442 26.597403-13.298702l79.792208 53.194805c13.298701 10.638961 15.958442 22.607792 13.298701 26.597403-6.649351 10.638961-13.298701 13.298701-13.298701 13.298701zM791.272727 545.246753c-14.628571 0-22.607792-5.319481-26.597402-13.298701l-26.597403-93.090909c-2.65974-13.298701 3.98961-22.607792 13.298701-26.597403 11.968831-2.65974 22.607792 3.98961 26.597403 13.298702l26.597403 93.090909c2.65974 13.298701-3.98961 22.607792-13.298702 26.597402-2.65974 0-3.98961 0 0 0zM578.493506 239.376623c-2.65974 0-10.638961-5.319481-13.298701-13.298701-1.32987-9.309091 3.98961-18.618182 13.298701-26.597403l93.09091-13.298701c13.298701-1.32987 23.937662 3.98961 26.597402 13.298701 1.32987 9.309091-3.98961 18.618182-13.298701 26.597403l-93.090909 13.298701h-13.298702zM485.402597 279.272727c-7.979221 0-11.968831-1.32987-13.298701 0l-79.792208-66.493506c-1.32987-1.32987-2.65974-13.298701 0-26.597403 10.638961-1.32987 21.277922-2.65974 26.597403 0l79.792208 66.493507c1.32987 1.32987 2.65974 13.298701 0 26.597402-7.979221-2.65974-13.298701 0-13.298702 0z" fill="#FF6827" p-id="5845"></path><path d="M512 66.493506C261.984416 66.493506 59.844156 268.633766 59.844156 518.649351s202.14026 452.155844 452.155844 452.155844 452.155844-202.14026 452.155844-452.155844S762.015584 66.493506 512 66.493506z m0 41.225975c227.407792 0 410.92987 183.522078 410.92987 410.92987 0 78.462338-21.277922 150.275325-59.844156 212.77922 2.65974-11.968831 6.649351-27.927273 13.298702-47.875324l1.32987-3.989611c6.649351-63.833766 0-98.41039-21.277922-111.709091-13.298701-7.979221-27.927273-5.319481-35.906494 0l-1.32987 1.329871c-33.246753 25.267532-49.205195 22.607792-53.194805 21.277922-6.649351-2.65974-9.309091-10.638961-9.309091-10.638961-11.968831-53.194805-29.257143-83.781818-51.864935-93.090909-3.98961-1.32987-6.649351-2.65974-10.638961-2.659741C678.233766 397.631169 603.761039 332.467532 512 332.467532c-30.587013 0-59.844156 7.979221-85.111688 21.277923-1.32987 0-1.32987 0-2.659741 1.32987l-94.420779 39.896104c-53.194805 26.597403-93.090909 30.587013-118.358441 14.628571-35.906494-23.937662-39.896104-90.431169-38.566234-114.368831 0-2.65974 0-3.98961-1.32987-6.649351C246.025974 179.532468 371.033766 107.719481 512 107.719481zM512 372.363636c81.122078 0 146.285714 65.163636 146.285714 146.285715s-65.163636 146.285714-146.285714 146.285714-146.285714-65.163636-146.285714-146.285714 65.163636-146.285714 146.285714-146.285715z m0 557.215585C284.592208 929.579221 101.07013 746.057143 101.07013 518.649351c0-59.844156 13.298701-117.028571 35.906493-168.893507 6.649351 31.916883 19.948052 70.483117 51.864935 91.761039 17.288312 10.638961 35.906494 17.288312 58.514286 17.288312 29.257143 0 62.503896-9.309091 98.41039-27.927273h1.32987c-14.628571 26.597403-22.607792 55.854545-22.607792 89.101299 0 102.4 83.781818 186.181818 186.181818 186.181818 98.41039 0 178.202597-75.802597 184.851948-172.883117 5.319481 7.979221 13.298701 25.267532 21.277922 57.184416 1.32987 2.65974 7.979221 29.257143 34.576623 38.566233 22.607792 7.979221 50.535065 1.32987 83.781819-22.607792 2.65974 7.979221 5.319481 25.267532 1.32987 67.823377-22.607792 77.132468-25.267532 101.07013-14.628572 113.038961-74.472727 86.441558-184.851948 142.296104-309.85974 142.296104z" fill="#3C3C3C" p-id="5846"></path></svg>