<?xml version="1.0" standalone="no"?><!DOCTYPE svg PUBLIC "-//W3C//DTD SVG 1.1//EN" "http://www.w3.org/Graphics/SVG/1.1/DTD/svg11.dtd"><svg t="1507039057334" class="icon" style="" viewBox="0 0 1024 1024" version="1.1" xmlns="http://www.w3.org/2000/svg" p-id="2108" xmlns:xlink="http://www.w3.org/1999/xlink" width="32" height="32"><defs><style type="text/css"></style></defs><path d="M949.76 362.112l-137.856-222.016a25.408 25.408 0 0 0-13.824-10.048 25.728 25.728 0 0 0-6.848-1.792c-0.448 0-0.704-0.256-1.088-0.256H235.072c-0.384 0-0.768 0.256-1.216 0.32a23.872 23.872 0 0 0-9.472 2.432c-0.64 0.32-1.408 0.384-2.048 0.768-0.128 0.128-0.32 0.064-0.512 0.192a24.768 24.768 0 0 0-7.872 7.808c-0.192 0.192-0.448 0.256-0.576 0.512L74.304 361.984c-0.256 0.448-0.064 0.896-0.32 1.28a25.28 25.28 0 0 0-3.584 12.352c0 0.448 0.256 0.896 0.256 1.344 0 0.832 0.32 1.472 0.448 2.304 0.704 4.48 2.432 8.576 5.184 12.032 0.256 0.384 0.192 0.832 0.512 1.216l418.432 474.56a25.6 25.6 0 0 0 19.2 8.704h0.064a25.664 25.664 0 0 0 19.264-8.832l413.568-474.56a25.536 25.536 0 0 0 2.432-30.272zM234.752 202.304L324.48 350.016H142.272l92.48-147.712z m385.472 198.912l-108.032 361.344-108.032-361.344h216.064z m-201.216-51.2l93.184-160.768 93.184 160.768H419.008zM565.568 179.2h178.24l-91.264 150.144L565.568 179.2zM371.84 329.344L280.576 179.2h178.24L371.84 329.344z m-21.12 71.872l101.568 339.84-299.648-339.84H350.72z m322.944 0h198.08L570.24 747.136l103.424-345.92z m26.304-51.2l89.984-148.16 92.032 148.16h-182.016z" p-id="2109" fill="#e8989a"></path></svg>