<?xml version="1.0" standalone="no"?><!DOCTYPE svg PUBLIC "-//W3C//DTD SVG 1.1//EN" "http://www.w3.org/Graphics/SVG/1.1/DTD/svg11.dtd"><svg t="1511851740971" class="icon" style="" viewBox="0 0 1024 1024" version="1.1" xmlns="http://www.w3.org/2000/svg" p-id="1703" xmlns:xlink="http://www.w3.org/1999/xlink" width="24" height="24"><defs><style type="text/css"></style></defs><path d="M512 1024c-26.112 0-50.176-11.776-66.048-31.744l-243.712-304.128C134.656 612.864 97.28 515.072 97.28 413.696 97.28 185.344 283.136 0 512 0s414.72 185.344 414.72 413.696c0 103.424-37.888 199.168-109.568 276.48l-239.104 301.568c-15.872 20.48-40.448 32.256-66.048 32.256z m0-952.32c-189.44 0-343.552 153.6-343.552 342.016 0 83.968 31.232 164.864 87.552 228.352l245.248 305.664c6.656 8.704 13.824 8.704 20.992 0l240.64-303.616c60.928-66.048 92.16-144.896 92.16-229.888 0.512-189.44-153.6-342.528-343.04-342.528z" p-id="1704" fill="#646464"></path><path d="M513.536 607.232c-114.688 0-207.872-92.672-208.384-206.848 0-55.296 21.504-107.52 60.928-146.944 39.424-39.424 91.648-60.928 146.944-60.928 114.688 0 208.384 92.672 208.384 206.848 0 55.296-21.504 107.52-60.928 146.944-38.4 38.912-90.624 60.928-146.944 60.928z m0-332.288c-33.792 0-65.024 13.312-89.088 36.864-23.552 23.552-36.352 54.784-36.352 88.064 0 68.608 56.32 124.416 125.44 124.416v41.472-41.472c33.28 0 65.024-13.312 88.576-36.864 23.552-23.552 36.352-54.784 36.352-88.064 0.512-68.608-55.808-124.416-124.928-124.416z" p-id="1705" fill="#646464"></path></svg>